<svg width="24" height="24" viewBox="0 0 24 24" fill="none" xmlns="http://www.w3.org/2000/svg">
<path fill-rule="evenodd" clip-rule="evenodd" d="M10 0C4.47715 0 0 4.47715 0 10V14C0 19.5228 4.47715 24 10 24H14C19.5228 24 24 19.5228 24 14V10C24 4.47715 19.5228 0 14 0H10ZM10.3333 7.33333C8.67648 7.33333 7.33333 8.67648 7.33333 10.3333V14.3333C7.33333 15.9902 8.67648 17.3333 10.3333 17.3333H14.3333C15.9902 17.3333 17.3333 15.9902 17.3333 14.3333V10.3333C17.3333 8.67648 15.9902 7.33333 14.3333 7.33333H10.3333Z" fill="#0197A8"/>
</svg>
