<svg width="39" height="39" viewBox="0 0 39 39" fill="none" xmlns="http://www.w3.org/2000/svg">
<path fill-rule="evenodd" clip-rule="evenodd" d="M10 0C4.47715 0 0 4.47715 0 10V29C0 34.5228 4.47715 39 10 39H29C34.5228 39 39 34.5228 39 29V10C39 4.47715 34.5228 0 29 0H10ZM14.9167 11.9167C13.2598 11.9167 11.9167 13.2598 11.9167 14.9167V25.1667C11.9167 26.8235 13.2598 28.1667 14.9167 28.1667H25.1667C26.8235 28.1667 28.1667 26.8235 28.1667 25.1667V14.9167C28.1667 13.2598 26.8235 11.9167 25.1667 11.9167H14.9167Z" fill="#0197A8"/>
</svg>
