<svg width="24" height="24" viewBox="0 0 24 24" fill="none" xmlns="http://www.w3.org/2000/svg">
<path d="M23.781 0.21898C23.8848 0.322979 23.9558 0.455192 23.9852 0.599196C24.0145 0.743201 24.0009 0.892651 23.946 1.02898L15.2175 22.8495C15.1406 23.0416 15.0121 23.2089 14.8463 23.3327C14.6805 23.4566 14.4837 23.5323 14.2776 23.5515C14.0715 23.5708 13.8641 23.5328 13.6782 23.4417C13.4923 23.3507 13.3351 23.2101 13.224 23.0355L8.457 15.543L0.964504 10.776C0.789481 10.665 0.648532 10.5077 0.557209 10.3217C0.465887 10.1356 0.427741 9.92793 0.446982 9.72156C0.466222 9.51519 0.542101 9.31814 0.666246 9.15217C0.79039 8.98619 0.957974 8.85774 1.1505 8.78098L22.971 0.0554805C23.1073 0.0005989 23.2568 -0.0130207 23.4008 0.0163136C23.5448 0.0456478 23.677 0.116643 23.781 0.220481V0.21898ZM9.954 15.105L14.0955 21.612L21.195 3.86398L9.954 15.105ZM20.1345 2.80348L2.3865 9.90298L8.895 14.043L20.136 2.80348H20.1345Z" fill="#F4F4F4"/>
</svg>
