<svg width="36" height="48" viewBox="0 0 36 48" fill="none" xmlns="http://www.w3.org/2000/svg">
<path d="M9.004 0H14.16V2.156H11.16V4.312H14.16V6.468H9.004V0Z" fill="#147DF5"/>
<path d="M15.19 0H20.348V1.876H17.348V2.25H20.348V6.562H15.19V4.594H18.19V4.218H15.19V0Z" fill="#147DF5"/>
<path d="M21.38 0H26.534V1.876H23.534V2.25H26.534V6.562H21.38V4.594H24.38V4.218H21.38V0Z" fill="#147DF5"/>
<path fill-rule="evenodd" clip-rule="evenodd" d="M17.982 48L4.094 44.144L0 9.43396H36L31.908 44.14L17.982 48ZM8.094 25.146L8.476 29.402H23.23L22.736 34.922L17.988 36.206H17.984L13.244 34.926L12.94 31.532H8.666L9.262 38.216L17.982 40.636L26.716 38.216L27.78 26.288L27.884 25.146L28.652 16.528H7.328L7.716 20.786H23.988L23.6 25.146H8.094Z" fill="#147DF5"/>
</svg>
