<svg width="48" height="48" viewBox="0 0 48 48" fill="none" xmlns="http://www.w3.org/2000/svg">
<path d="M42 9H6C5.20435 9 4.44129 9.31607 3.87868 9.87868C3.31607 10.4413 3 11.2044 3 12V36C3 36.7956 3.31607 37.5587 3.87868 38.1213C4.44129 38.6839 5.20435 39 6 39H42C42.7957 39 43.5587 38.6839 44.1213 38.1213C44.6839 37.5587 45 36.7956 45 36V12C45 11.2044 44.6839 10.4413 44.1213 9.87868C43.5587 9.31607 42.7957 9 42 9ZM38.7 12L24 22.17L9.3 12H38.7ZM6 36V13.365L23.145 25.23C23.3961 25.4042 23.6944 25.4975 24 25.4975C24.3056 25.4975 24.6039 25.4042 24.855 25.23L42 13.365V36H6Z" fill="#147DF5"/>
</svg>
