<svg width="32" height="22" viewBox="0 0 32 22" fill="none" xmlns="http://www.w3.org/2000/svg">
<path d="M20.9999 11C20.9999 12.3261 20.4731 13.5979 19.5354 14.5355C18.5977 15.4732 17.326 16 15.9999 16C14.6738 16 13.402 15.4732 12.4643 14.5355C11.5267 13.5979 10.9999 12.3261 10.9999 11C10.9999 9.67392 11.5267 8.40215 12.4643 7.46447C13.402 6.52678 14.6738 6 15.9999 6C17.326 6 18.5977 6.52678 19.5354 7.46447C20.4731 8.40215 20.9999 9.67392 20.9999 11Z" fill="#F4F4F4"/>
<path d="M-6.10352e-05 11C-6.10352e-05 11 5.99994 0 15.9999 0C25.9999 0 31.9999 11 31.9999 11C31.9999 11 25.9999 22 15.9999 22C5.99994 22 -6.10352e-05 11 -6.10352e-05 11ZM15.9999 18C17.8565 18 19.6369 17.2625 20.9497 15.9497C22.2624 14.637 22.9999 12.8565 22.9999 11C22.9999 9.14349 22.2624 7.36301 20.9497 6.05025C19.6369 4.7375 17.8565 4 15.9999 4C14.1434 4 12.3629 4.7375 11.0502 6.05025C9.73744 7.36301 8.99994 9.14349 8.99994 11C8.99994 12.8565 9.73744 14.637 11.0502 15.9497C12.3629 17.2625 14.1434 18 15.9999 18Z" fill="#F4F4F4"/>
</svg>
