<svg width="36" height="48" viewBox="0 0 36 48" fill="none" xmlns="http://www.w3.org/2000/svg">
<path d="M4.16 0H6.324V2.138H8.304V0H10.468V6.472H8.304V4.306H6.324V6.472H4.162V0H4.16Z" fill="#147DF5"/>
<path d="M13.312 2.146H11.408V0H17.382V2.146H15.476V6.472H13.312V2.146Z" fill="#147DF5"/>
<path d="M18.33 0H20.586L21.974 2.274L23.36 0H25.616V6.472H23.462V3.264L21.974 5.566H21.936L20.446 3.266V6.472H18.33V0Z" fill="#147DF5"/>
<path d="M26.692 0H28.858V4.334H31.898V6.474H26.692V0Z" fill="#147DF5"/>
<path fill-rule="evenodd" clip-rule="evenodd" d="M4.092 44.144L0 9.43396H36L31.906 44.14L17.98 48L4.092 44.144ZM12.366 25.144L11.978 20.784H28.268L28.648 16.528H7.328L8.476 29.402H23.23L22.736 34.922L17.988 36.206H17.984L13.244 34.926L12.94 31.532H8.664L9.26 38.216L17.98 40.636L26.714 38.216L27.778 26.288L27.882 25.146H12.366V25.144Z" fill="#147DF5"/>
</svg>
