<svg width="36" height="44" viewBox="0 0 36 44" fill="none" xmlns="http://www.w3.org/2000/svg">
<path d="M18 24C21.3137 24 24 21.3137 24 18C24 14.6863 21.3137 12 18 12C14.6863 12 12 14.6863 12 18C12 21.3137 14.6863 24 18 24Z" stroke="#147DF5" stroke-width="4" stroke-linecap="round" stroke-linejoin="round"/>
<path d="M18 2C13.7565 2 9.68687 3.68571 6.68629 6.68629C3.68571 9.68687 2 13.7565 2 18C2 21.784 2.804 24.26 5 27L18 42L31 27C33.196 24.26 34 21.784 34 18C34 13.7565 32.3143 9.68687 29.3137 6.68629C26.3131 3.68571 22.2435 2 18 2V2Z" stroke="#147DF5" stroke-width="4" stroke-linecap="round" stroke-linejoin="round"/>
</svg>
