<svg width="48" height="48" viewBox="0 0 48 48" fill="none" xmlns="http://www.w3.org/2000/svg">
<path d="M23.828 0C11.64 0 12.4 5.312 12.4 5.312L12.414 10.816H24.042V12.468H7.8C7.8 12.468 0 11.578 0 23.938C0 36.298 6.806 35.858 6.806 35.858H10.866V30.124C10.866 30.124 10.648 23.284 17.566 23.284H29.098C29.098 23.284 35.578 23.388 35.578 16.988V6.404C35.578 6.404 36.56 0 23.826 0H23.828ZM17.416 3.7C18.572 3.7 19.508 4.64 19.508 5.804C19.508 6.966 18.572 7.906 17.416 7.906C16.258 7.906 15.324 6.966 15.324 5.804C15.324 4.64 16.258 3.7 17.416 3.7Z" fill="#147DF5"/>
<path d="M24.174 48C36.358 48 35.598 42.688 35.598 42.688L35.584 37.184H23.956V35.532H40.202C40.202 35.532 48.002 36.422 48.002 24.062C48.002 11.702 41.194 12.142 41.194 12.142H37.134V17.876C37.134 17.876 37.352 24.716 30.434 24.716H18.904C18.904 24.716 12.424 24.612 12.424 31.012V41.596C12.424 41.596 11.44 48 24.174 48ZM30.586 44.3C29.428 44.3 28.494 43.36 28.494 42.196C28.494 41.034 29.428 40.094 30.586 40.094C31.742 40.094 32.678 41.034 32.678 42.196C32.678 43.36 31.742 44.3 30.586 44.3Z" fill="#147DF5"/>
</svg>
