<svg width="48" height="43" viewBox="0 0 48 43" fill="none" xmlns="http://www.w3.org/2000/svg">
<path d="M48 21.378C48 18.198 44.018 15.184 37.912 13.316C39.322 7.094 38.696 2.142 35.936 0.556C35.2672 0.181441 34.5103 -0.00709578 33.744 0.00999999V2.19C34.194 2.19 34.556 2.28 34.86 2.446C36.19 3.21 36.768 6.114 36.318 9.852C36.21 10.772 36.034 11.74 35.818 12.728C33.7733 12.2353 31.698 11.8792 29.606 11.662C28.3597 9.94258 27 8.30828 25.536 6.77C28.726 3.806 31.72 2.182 33.756 2.182V0C31.064 0 27.542 1.918 23.98 5.244C20.42 1.94 16.896 0.04 14.206 0.04V2.22C16.232 2.22 19.236 3.836 22.426 6.78C21.056 8.22 19.686 9.852 18.384 11.662C16.2877 11.8767 14.2087 12.2363 12.162 12.738C11.936 11.76 11.77 10.812 11.652 9.902C11.192 6.162 11.76 3.258 13.082 2.486C13.374 2.31 13.756 2.23 14.206 2.23V0.05C13.386 0.05 12.64 0.226 11.996 0.596C9.246 2.182 8.63 7.122 10.048 13.326C3.962 15.206 0 18.208 0 21.378C0 24.558 3.982 27.572 10.088 29.438C8.678 35.662 9.304 40.614 12.064 42.198C12.7 42.57 13.444 42.746 14.264 42.746C16.956 42.746 20.478 40.828 24.04 37.502C27.6 40.808 31.122 42.706 33.814 42.706C34.5862 42.7223 35.3489 42.5332 36.024 42.158C38.774 40.574 39.39 35.634 37.972 29.43C44.038 27.562 48 24.548 48 21.378ZM35.26 14.852C34.88 16.1597 34.4395 17.4491 33.94 18.716C33.1223 17.1255 32.2245 15.5775 31.25 14.078C32.64 14.284 33.98 14.538 35.262 14.852H35.26ZM30.78 25.272C30.018 26.592 29.234 27.846 28.422 29.01C25.4865 29.2687 22.5341 29.2721 19.598 29.02C17.9139 26.6144 16.4411 24.0675 15.196 21.408C16.4392 18.7422 17.9057 16.1864 19.58 13.768C22.5148 13.5087 25.4665 13.5047 28.402 13.756C29.214 14.92 30.008 16.164 30.77 17.476C31.514 18.756 32.19 20.056 32.806 21.368C32.1832 22.6959 31.5073 23.9983 30.78 25.272ZM33.94 24C34.468 25.31 34.92 26.622 35.29 27.894C34.01 28.208 32.658 28.472 31.26 28.676C32.2305 27.1628 33.1249 25.6022 33.94 24ZM24.02 34.44C23.11 33.5 22.2 32.454 21.3 31.308C22.18 31.348 23.08 31.378 23.99 31.378C24.91 31.378 25.82 31.358 26.71 31.308C25.83 32.454 24.92 33.5 24.02 34.44ZM16.74 28.676C15.3915 28.4806 14.0527 28.223 12.728 27.904C13.09 26.642 13.54 25.34 14.048 24.04C14.45 24.82 14.872 25.604 15.332 26.388C15.792 27.17 16.26 27.934 16.74 28.676ZM23.97 8.316C24.88 9.256 25.79 10.302 26.69 11.448C25.81 11.408 24.91 11.378 24 11.378C23.08 11.378 22.17 11.398 21.28 11.448C22.16 10.302 23.07 9.256 23.97 8.316ZM16.73 14.08C15.7597 15.5899 14.8653 17.1471 14.05 18.746C13.5364 17.4709 13.0859 16.1713 12.7 14.852C13.98 14.548 15.332 14.284 16.73 14.08ZM7.876 26.328C4.412 24.852 2.172 22.914 2.172 21.378C2.172 19.842 4.412 17.894 7.876 16.428C8.716 16.066 9.636 15.742 10.586 15.44C11.144 17.356 11.878 19.352 12.786 21.398C11.9287 23.3224 11.2037 25.303 10.616 27.326C9.6869 27.0383 8.77247 26.7053 7.876 26.328ZM13.14 40.308C11.81 39.548 11.232 36.64 11.682 32.904C11.79 31.984 11.966 31.014 12.182 30.026C14.098 30.496 16.192 30.858 18.394 31.094C19.6404 32.8134 21 34.4477 22.464 35.986C19.274 38.95 16.28 40.574 14.244 40.574C13.8599 40.5782 13.4807 40.4875 13.14 40.31V40.308ZM36.348 32.854C36.808 36.592 36.24 39.498 34.918 40.27C34.626 40.446 34.244 40.524 33.794 40.524C31.768 40.524 28.764 38.91 25.574 35.964C26.944 34.528 28.314 32.894 29.616 31.084C31.7123 30.8693 33.7913 30.5097 35.838 30.008C36.064 30.996 36.238 31.944 36.348 32.854ZM40.114 26.328C39.274 26.69 38.354 27.014 37.404 27.316C36.806 25.2826 36.0709 23.2921 35.204 21.358C36.104 19.324 36.826 17.338 37.374 15.43C38.344 15.732 39.262 16.066 40.124 16.428C43.588 17.904 45.828 19.842 45.828 21.378C45.818 22.914 43.578 24.862 40.114 26.328Z" fill="#147DF5"/>
<path d="M23.99 25.85C25.176 25.85 26.3135 25.3789 27.1522 24.5402C27.9908 23.7015 28.462 22.5641 28.462 21.378C28.462 20.192 27.9908 19.0545 27.1522 18.2158C26.3135 17.3772 25.176 16.906 23.99 16.906C22.8039 16.906 21.6665 17.3772 20.8278 18.2158C19.9892 19.0545 19.518 20.192 19.518 21.378C19.518 22.5641 19.9892 23.7015 20.8278 24.5402C21.6665 25.3789 22.8039 25.85 23.99 25.85Z" fill="#147DF5"/>
</svg>
